<?xml version="1.0" encoding="UTF-8" standalone="no"?>
<!DOCTYPE svg PUBLIC "-//W3C//DTD SVG 1.1//EN" "http://www.w3.org/Graphics/SVG/1.1/DTD/svg11.dtd">
<!-- Created with Vectornator (http://vectornator.io/) -->
<svg height="100%" stroke-miterlimit="10" style="fill-rule:nonzero;clip-rule:evenodd;stroke-linecap:round;stroke-linejoin:round;" version="1.1" viewBox="178.494 217.133 171.966 171.966" width="100%" xml:space="preserve" xmlns="http://www.w3.org/2000/svg" xmlns:vectornator="http://vectornator.io" xmlns:xlink="http://www.w3.org/1999/xlink">
<defs/>
<g id="Layer-1" vectornator:layerName="Layer 1">
<path d="M178.494 303.116C178.494 255.629 216.99 217.133 264.477 217.133C311.964 217.133 350.46 255.629 350.46 303.116C350.46 350.603 311.964 389.099 264.477 389.099C216.99 389.099 178.494 350.603 178.494 303.116Z" fill="#0ea5e9" fill-rule="nonzero" opacity="1" stroke="none" vectornator:layerName="Oval 1"/>
<path d="M288.846 256.161L283.972 266.155L334.68 297.515L334.68 305.982L297.314 329.367L292.834 323.262L327.591 301.798L280.723 272.85L244.637 347.238L237.942 344.235L242.077 335.668L194.372 305.982L194.372 297.515L232.231 274.13L236.218 280.481L201.462 301.798L245.375 328.924L282.249 252.911L288.846 256.161Z" fill="#ede7d5" opacity="1" stroke="none" vectornator:layerName="Text 1"/>
</g>
</svg>
